# xmcd
#
# Track frame offsets: 
#        150
#        24750
#        41395
#        61725
#        74546
#        92925
#        104659
#        113669
#        126963
#        131543
#        143981
#        156718
#        177354
#        190418
#
# Disc length: 2654 seconds
#
# Revision: 0
# Processed by: cddbd v1.5.2PL0 Copyright (c) Steve Scherf et al.
# Submitted via: ExactAudioCopyFreeDBPlugin 1.0
#
DISCID=cc0a5c0e
DTITLE=California Guitar Trio - Pathways
DYEAR=1998
DGENRE=Acoustic
TTITLE0=Allegro Con Brio, Symphony No 5
TTITLE1=Arroyo
TTITLE2=Pathways
TTITLE3=Leap
TTITLE4=Adagio Opus 11
TTITLE5=Great Devide
TTITLE6=Scramble
TTITLE7=Classical Gas
TTITLE8=Kaleidoscope
TTITLE9=Ananda
TTITLE10=Adagio Sostenuto, Moonlight Sonata
TTITLE11=Presto Agitato, Moonlight Sonata
TTITLE12=Jeau, Joy Of Man's Desiring
TTITLE13=Misirlou
EXTD=
EXTT0=
EXTT1=
EXTT2=
EXTT3=
EXTT4=
EXTT5=
EXTT6=
EXTT7=
EXTT8=
EXTT9=
EXTT10=
EXTT11=
EXTT12=
EXTT13=
PLAYORDER=
